<?xml version="1.0" encoding="UTF-8"?>
<svg width="192" height="192" viewBox="0 0 192 192" xmlns="http://www.w3.org/2000/svg">
  <rect width="192" height="192" rx="24" fill="#111827"/>
  <g transform="translate(32, 32)">
    <!-- Shield outline -->
    <path d="M64 16L64 16C64 16 88 24 88 48C88 72 64 104 64 104C64 104 40 72 40 48C40 24 64 16 64 16Z" 
          fill="none" stroke="#059669" stroke-width="3"/>
    <!-- Lock symbol -->
    <rect x="52" y="52" width="24" height="20" rx="2" fill="#059669"/>
    <path d="M56 52V44C56 39.6 59.6 36 64 36C68.4 36 72 39.6 72 44V52" 
          fill="none" stroke="#059669" stroke-width="3"/>
    <!-- Document lines -->
    <line x1="48" y1="84" x2="80" y2="84" stroke="#10b981" stroke-width="2"/>
    <line x1="48" y1="92" x2="72" y2="92" stroke="#10b981" stroke-width="2"/>
    <line x1="48" y1="100" x2="76" y2="100" stroke="#10b981" stroke-width="2"/>
  </g>
</svg>